<svg width="172" height="22" viewBox="0 0 172 22" fill="none" xmlns="http://www.w3.org/2000/svg">
<line x1="2.38742" y1="1.75" x2="12.2824" y2="11.645" stroke="#468459" stroke-width="2.13889" stroke-linecap="round"/>
<line x1="2.38742" y1="9.59277" x2="12.2824" y2="19.4878" stroke="#468459" stroke-width="2.13889" stroke-linecap="round"/>
<path d="M35.2742 6.22V8.722C35.7782 8.686 36.7502 8.65 37.5062 8.65H45.5882V16.102H37.2902C36.4802 16.102 35.6702 16.048 35.0402 15.994V18.568C35.6342 18.514 36.6602 18.46 37.3622 18.46H45.5702C45.5702 18.802 45.5702 19.108 45.5522 19.396H48.1622C48.1262 18.856 48.0902 17.902 48.0902 17.272V7.948C48.0902 7.426 48.1262 6.706 48.1442 6.292C47.8382 6.31 47.0822 6.328 46.5602 6.328H37.4882C36.8762 6.328 35.9402 6.292 35.2742 6.22ZM52.1042 10.666V13.492C52.7702 13.438 53.9762 13.402 55.0022 13.402H64.6682C65.4242 13.402 66.3422 13.474 66.7742 13.492V10.666C66.3062 10.702 65.5142 10.774 64.6682 10.774H55.0022C54.0662 10.774 52.7522 10.72 52.1042 10.666ZM82.5638 6.796L81.0878 5.698C80.7278 5.824 80.0078 5.932 79.2338 5.932H72.8798C72.3398 5.932 71.2418 5.878 70.7558 5.806V8.362C71.1338 8.344 72.1238 8.236 72.8798 8.236H78.9818C78.5858 9.514 77.4878 11.296 76.2998 12.646C74.6078 14.536 71.8178 16.732 68.9198 17.812L70.7738 19.756C73.2398 18.586 75.6338 16.714 77.5418 14.698C79.2338 16.336 80.9078 18.172 82.0778 19.792L84.1298 18.01C83.0678 16.714 80.8898 14.41 79.1078 12.862C80.3138 11.242 81.3218 9.316 81.9338 7.912C82.0958 7.552 82.4198 6.994 82.5638 6.796ZM94.5518 9.856C93.2918 9.856 92.2478 10.9 92.2478 12.16C92.2478 13.42 93.2918 14.464 94.5518 14.464C95.8118 14.464 96.8558 13.42 96.8558 12.16C96.8558 10.9 95.8118 9.856 94.5518 9.856ZM116.494 6.904C115.918 6.238 114.64 5.32 113.632 4.726L112.606 6.166C113.596 6.832 114.838 7.804 115.396 8.506L116.494 6.904ZM111.778 10.684C112.822 11.314 114.136 12.268 114.73 12.934L115.81 11.224C115.162 10.576 113.83 9.712 112.786 9.154L111.778 10.684ZM110.158 4.744C109.96 6.004 109.528 7.822 109.168 8.956L110.518 9.334C110.968 8.29 111.49 6.58 111.958 5.14L110.158 4.744ZM106.666 8.956C106.576 7.84 106.216 6.13 105.748 4.834L104.254 5.23C104.668 6.526 105.028 8.272 105.064 9.388L106.666 8.956ZM111.58 14.878C111.202 14.374 109.492 12.358 108.97 11.836V11.71H111.634V9.712H108.97V3.826H106.99V9.712H104.272V11.71H106.324C105.766 13.348 104.848 15.274 103.948 16.372C104.272 16.966 104.74 17.938 104.92 18.586C105.694 17.506 106.414 15.832 106.99 14.158V20.512H108.97V14.194C109.492 15.022 109.996 15.958 110.266 16.534L111.58 14.878ZM121.102 15.292L120.778 13.294L118.942 13.636V3.736H116.926V13.996L111.58 14.95L111.904 16.948L116.926 16.048V20.548H118.942V15.688L121.102 15.292ZM129.328 14.608V18.208H126.898L128.374 17.578C128.104 16.75 127.402 15.526 126.718 14.608H129.328ZM127.294 9.118C128.59 8.038 129.706 6.868 130.48 5.788C131.272 6.868 132.46 8.038 133.792 9.118H127.294ZM134.08 14.608C133.684 15.562 132.964 16.876 132.37 17.722L133.54 18.208H131.578V14.608H137.122V12.772H131.578V10.99H135.016V10.054C135.916 10.702 136.852 11.296 137.752 11.764C138.148 11.098 138.634 10.378 139.174 9.838C136.33 8.686 133.432 6.418 131.488 3.7H129.274C127.942 5.86 125.062 8.56 122.002 10.054C122.47 10.504 123.064 11.278 123.334 11.782C124.252 11.296 125.17 10.72 126.016 10.108V10.99H129.328V12.772H123.856V14.608H126.61L124.972 15.31C125.602 16.192 126.196 17.398 126.466 18.208H122.956V20.044H138.184V18.208H134.116C134.746 17.452 135.448 16.354 136.132 15.364L134.08 14.608Z" fill="#468459"/>
<line x1="1.06944" y1="-1.06944" x2="15.0631" y2="-1.06944" transform="matrix(-0.707107 0.707107 0.707107 0.707107 171.125 1.75)" stroke="#468459" stroke-width="2.13889" stroke-linecap="round"/>
<line x1="1.06944" y1="-1.06944" x2="15.0631" y2="-1.06944" transform="matrix(-0.707107 0.707107 0.707107 0.707107 171.125 9.59277)" stroke="#468459" stroke-width="2.13889" stroke-linecap="round"/>
</svg>
