<svg width="123" height="53" viewBox="0 0 123 53" fill="none" xmlns="http://www.w3.org/2000/svg">
<path fill-rule="evenodd" clip-rule="evenodd" d="M8.5957 7.99023C9.83834 7.99023 10.8457 6.98288 10.8457 5.74023C10.8457 4.49759 9.83834 3.49023 8.5957 3.49023C7.35306 3.49023 6.3457 4.49759 6.3457 5.74023C6.3457 6.98288 7.35306 7.99023 8.5957 7.99023ZM19.627 15.9043C19.627 17.1469 18.6196 18.1543 17.377 18.1543C16.1343 18.1543 15.127 17.1469 15.127 15.9043C15.127 14.6617 16.1343 13.6543 17.377 13.6543C18.6196 13.6543 19.627 14.6617 19.627 15.9043ZM0.381836 16.3811C0.381836 15.8289 0.829551 15.3811 1.38184 15.3811H3.54675L5.94857 9.22904C6.18153 8.63234 6.7621 8.24441 7.40253 8.25752L8.35302 8.27698C8.77538 8.28563 9.18615 8.41671 9.53546 8.65431L14.1725 11.8084L14.6751 12.1219C15.1392 12.4115 15.299 13.0116 15.0404 13.4937C14.7508 14.0334 14.0593 14.2064 13.5497 13.8666L13.0002 13.5003L9.88184 11.8084L8.54482 15.3811H11.9747C12.6121 15.3811 13.2216 15.6422 13.6613 16.1036L16.2033 18.7706C16.2651 18.8354 16.3507 18.8721 16.4402 18.8721H20.6091C21.1664 18.8721 21.6182 19.3238 21.6182 19.8811C21.6182 20.4384 21.1664 20.8902 20.6091 20.8902L15.7818 20.8902L15.581 20.8902C15.5807 20.8902 15.5803 20.8902 15.5799 20.8902H1.38183C0.82955 20.8902 0.381836 20.4425 0.381836 19.8902V19.4175V18.9084V16.3811Z" fill="#468459"/>
<path d="M35.432 22.336C37.736 22.336 39.632 21.424 41.096 19.72L39.224 17.512C38.264 18.544 37.088 19.264 35.552 19.264C32.744 19.264 30.92 16.936 30.92 13.072C30.92 9.256 32.936 6.952 35.624 6.952C36.968 6.952 38 7.576 38.912 8.44L40.76 6.184C39.608 4.984 37.808 3.904 35.552 3.904C31.064 3.904 27.296 7.336 27.296 13.192C27.296 19.12 30.944 22.336 35.432 22.336ZM49.2854 22.336C52.6454 22.336 55.7414 19.744 55.7414 15.28C55.7414 10.816 52.6454 8.224 49.2854 8.224C45.9254 8.224 42.8294 10.816 42.8294 15.28C42.8294 19.744 45.9254 22.336 49.2854 22.336ZM49.2854 19.456C47.4614 19.456 46.4294 17.824 46.4294 15.28C46.4294 12.76 47.4614 11.104 49.2854 11.104C51.1094 11.104 52.1414 12.76 52.1414 15.28C52.1414 17.824 51.1094 19.456 49.2854 19.456ZM58.6929 22H62.2209V12.76C63.2049 11.776 63.9009 11.248 65.0049 11.248C66.3249 11.248 66.9009 11.968 66.9009 14.056V22H70.4289V13.624C70.4289 10.24 69.1809 8.224 66.2769 8.224C64.4529 8.224 63.0849 9.184 61.9089 10.336H61.8369L61.5729 8.56H58.6929V22ZM79.7799 22.336C81.2679 22.336 82.8999 21.832 84.1959 20.704L82.7799 18.376C82.0359 19 81.1239 19.456 80.1639 19.456C78.2439 19.456 76.8279 17.824 76.8279 15.28C76.8279 12.76 78.2199 11.104 80.2839 11.104C81.0279 11.104 81.6519 11.416 82.3239 11.992L84.0039 9.712C83.0199 8.872 81.7479 8.224 80.0919 8.224C76.4439 8.224 73.2279 10.816 73.2279 15.28C73.2279 19.744 76.0599 22.336 79.7799 22.336ZM91.8536 22.336C93.5096 22.336 95.2136 21.76 96.5336 20.848L95.3336 18.688C94.3736 19.288 93.4136 19.624 92.3096 19.624C90.3176 19.624 88.8776 18.472 88.5896 16.264H96.8696C96.9656 15.952 97.0376 15.304 97.0376 14.632C97.0376 10.936 95.1176 8.224 91.4216 8.224C88.2296 8.224 85.1576 10.936 85.1576 15.28C85.1576 19.72 88.0856 22.336 91.8536 22.336ZM88.5416 13.912C88.8056 11.968 90.0536 10.96 91.4696 10.96C93.1976 10.96 94.0136 12.112 94.0136 13.912H88.5416ZM99.9429 27.16H103.471V23.08L103.351 20.872C104.383 21.808 105.511 22.336 106.687 22.336C109.639 22.336 112.399 19.672 112.399 15.064C112.399 10.936 110.431 8.224 107.119 8.224C105.679 8.224 104.287 8.992 103.159 9.952H103.087L102.823 8.56H99.9429V27.16ZM105.895 19.432C105.175 19.432 104.311 19.168 103.471 18.424V12.52C104.383 11.584 105.199 11.128 106.111 11.128C107.959 11.128 108.775 12.544 108.775 15.112C108.775 18.04 107.527 19.432 105.895 19.432ZM119.629 22.336C120.805 22.336 121.741 22.072 122.461 21.832L121.885 19.264C121.525 19.408 120.997 19.552 120.565 19.552C119.365 19.552 118.741 18.832 118.741 17.296V11.344H122.053V8.56H118.741V4.936H115.812L115.405 8.56L113.317 8.728V11.344H115.213V17.296C115.213 20.296 116.437 22.336 119.629 22.336Z" fill="#468459"/>
<path d="M8.1 47.148C8.964 48.03 9.936 49.254 10.314 50.082L11.394 49.398C10.98 48.57 9.99 47.382 9.108 46.536L8.1 47.148ZM17.19 42.63V41.388H12.762V39.102H16.362V37.878H12.762V35.934H11.43V37.878H7.92V39.102H11.43V41.388H6.858V42.63H13.662V44.79H7.524L7.362 43.728L5.274 44.358V40.83H7.128V39.57H5.274V35.952H4.05V39.57H2.646C2.772 38.76 2.898 37.932 2.988 37.104L1.818 36.906C1.602 39.084 1.26 41.37 0.594 42.882C0.864 43.008 1.386 43.314 1.584 43.476C1.908 42.738 2.178 41.82 2.394 40.83H4.05V44.718C2.79 45.096 1.62 45.42 0.702 45.672L1.062 46.932L4.05 46.014V52.368H5.274V45.636L7.164 45.042V46.014H13.662V50.712C13.662 50.982 13.59 51.036 13.284 51.054C12.978 51.072 12.006 51.072 10.908 51.036C11.124 51.414 11.286 51.99 11.34 52.368C12.726 52.368 13.68 52.35 14.238 52.152C14.796 51.918 14.976 51.522 14.976 50.73V46.014H17.082V44.79H14.976V42.63H17.19ZM33.102 45.87C32.166 46.644 30.582 47.598 29.304 48.3C28.53 47.544 27.918 46.68 27.45 45.708H34.992V44.502H23.526V42.972H32.706V41.874H23.526V40.38H32.706V39.282H23.526V37.788H33.246V36.654H22.158V44.502H19.008V45.708H22.158V50.676C21.312 50.802 20.52 50.928 19.872 51.018L20.214 52.242C22.356 51.882 25.434 51.36 28.296 50.856L28.242 49.668C26.658 49.938 25.02 50.208 23.526 50.46V45.708H26.082C27.594 49.218 30.33 51.468 34.452 52.422C34.614 52.062 34.992 51.504 35.28 51.252C33.228 50.838 31.518 50.1 30.15 49.038C31.464 48.39 32.994 47.472 34.2 46.59L33.102 45.87Z" fill="#468459"/>
</svg>
