<svg width="211" height="25" viewBox="0 0 211 25" fill="none" xmlns="http://www.w3.org/2000/svg">
<line x1="2.72848" y1="2" x2="14.037" y2="13.3086" stroke="#468459" stroke-width="2.44444" stroke-linecap="round"/>
<line x1="2.72848" y1="10.9629" x2="14.037" y2="22.2714" stroke="#468459" stroke-width="2.44444" stroke-linecap="round"/>
<path d="M37.8657 4.96V8.296C38.5377 8.248 39.8337 8.2 40.8417 8.2H51.6177V18.136H40.5537C39.4737 18.136 38.3937 18.064 37.5537 17.992V21.424C38.3457 21.352 39.7137 21.28 40.6497 21.28H51.5937C51.5937 21.736 51.5937 22.144 51.5697 22.528H55.0497C55.0017 21.808 54.9537 20.536 54.9537 19.696V7.264C54.9537 6.568 55.0017 5.608 55.0257 5.056C54.6177 5.08 53.6097 5.104 52.9137 5.104H40.8177C40.0017 5.104 38.7537 5.056 37.8657 4.96ZM60.3057 10.888V14.656C61.1937 14.584 62.8017 14.536 64.1697 14.536H77.0577C78.0657 14.536 79.2897 14.632 79.8657 14.656V10.888C79.2417 10.936 78.1857 11.032 77.0577 11.032H64.1697C62.9217 11.032 61.1697 10.96 60.3057 10.888ZM100.918 5.728L98.9503 4.264C98.4703 4.432 97.5103 4.576 96.4783 4.576H88.0063C87.2863 4.576 85.8223 4.504 85.1743 4.408V7.816C85.6783 7.792 86.9983 7.648 88.0063 7.648H96.1423C95.6143 9.352 94.1503 11.728 92.5663 13.528C90.3103 16.048 86.5903 18.976 82.7263 20.416L85.1983 23.008C88.4863 21.448 91.6783 18.952 94.2223 16.264C96.4783 18.448 98.7103 20.896 100.27 23.056L103.006 20.68C101.59 18.952 98.6863 15.88 96.3103 13.816C97.9183 11.656 99.2623 9.088 100.078 7.216C100.294 6.736 100.726 5.992 100.918 5.728ZM116.902 9.808C115.222 9.808 113.83 11.2 113.83 12.88C113.83 14.56 115.222 15.952 116.902 15.952C118.582 15.952 119.974 14.56 119.974 12.88C119.974 11.2 118.582 9.808 116.902 9.808ZM146.158 5.872C145.39 4.984 143.686 3.76 142.342 2.968L140.974 4.888C142.294 5.776 143.95 7.072 144.694 8.008L146.158 5.872ZM139.87 10.912C141.262 11.752 143.014 13.024 143.806 13.912L145.246 11.632C144.382 10.768 142.606 9.616 141.214 8.872L139.87 10.912ZM137.71 2.992C137.446 4.672 136.87 7.096 136.39 8.608L138.19 9.112C138.79 7.72 139.486 5.44 140.11 3.52L137.71 2.992ZM133.054 8.608C132.934 7.12 132.454 4.84 131.83 3.112L129.838 3.64C130.39 5.368 130.87 7.696 130.918 9.184L133.054 8.608ZM139.606 16.504C139.102 15.832 136.822 13.144 136.126 12.448V12.28H139.678V9.616H136.126V1.768H133.486V9.616H129.862V12.28H132.598C131.854 14.464 130.63 17.032 129.43 18.496C129.862 19.288 130.486 20.584 130.726 21.448C131.758 20.008 132.718 17.776 133.486 15.544V24.016H136.126V15.592C136.822 16.696 137.494 17.944 137.854 18.712L139.606 16.504ZM152.302 17.056L151.87 14.392L149.422 14.848V1.648H146.734V15.328L139.606 16.6L140.038 19.264L146.734 18.064V24.064H149.422V17.584L152.302 17.056ZM163.27 16.144V20.944H160.03L161.998 20.104C161.638 19 160.702 17.368 159.79 16.144H163.27ZM160.558 8.824C162.286 7.384 163.774 5.824 164.806 4.384C165.862 5.824 167.446 7.384 169.222 8.824H160.558ZM169.606 16.144C169.078 17.416 168.118 19.168 167.326 20.296L168.886 20.944H166.27V16.144H173.662V13.696H166.27V11.32H170.854V10.072C172.054 10.936 173.302 11.728 174.502 12.352C175.03 11.464 175.678 10.504 176.398 9.784C172.606 8.248 168.742 5.224 166.15 1.6H163.198C161.422 4.48 157.582 8.08 153.502 10.072C154.126 10.672 154.918 11.704 155.278 12.376C156.502 11.728 157.726 10.96 158.854 10.144V11.32H163.27V13.696H155.974V16.144H159.646L157.462 17.08C158.302 18.256 159.094 19.864 159.454 20.944H154.774V23.392H175.078V20.944H169.654C170.494 19.936 171.43 18.472 172.342 17.152L169.606 16.144Z" fill="#468459"/>
<line x1="1.22222" y1="-1.22222" x2="17.2149" y2="-1.22222" transform="matrix(-0.707107 0.707107 0.707107 0.707107 210 2)" stroke="#468459" stroke-width="2.44444" stroke-linecap="round"/>
<line x1="1.22222" y1="-1.22222" x2="17.2149" y2="-1.22222" transform="matrix(-0.707107 0.707107 0.707107 0.707107 210 10.9629)" stroke="#468459" stroke-width="2.44444" stroke-linecap="round"/>
</svg>
